PathFileType	4	(X/Y/Z)	E:\Qualisys_Data\Carbon_Farble_Plate\Data\Amateur_Runner\S14\T2\S14T2V22_c3d.trc
DataRate	CameraRate	NumFrames	NumMarkers	Units	OrigDataRate	OrigDataStartFrame	OrigNumFrames
200.000000	200.000000	4	39	mm	200.000000	237	316
Frame#	Time	LSHO			RSHO			LICST			RICST			LASIS			LHEEL			RASIS			LTROC			RTROC			SACR			LTH1			LSK4			LTH2			LTH3			RHM5			LSK2			LTH4			RTH1			LTOE			RTH2			RTH3			RTH4			LLEP			RLEP			LSK1			LSK3			RSK1			LHM5			RSK2			LFT1			RSK3			RSK4			LLME			RLME			RTOE			RHEEL			RFT1			RFT2			LFT2			
		X1	Y1	Z1	X2	Y2	Z2	X3	Y3	Z3	X4	Y4	Z4	X5	Y5	Z5	X6	Y6	Z6	X7	Y7	Z7	X8	Y8	Z8	X9	Y9	Z9	X10	Y10	Z10	X11	Y11	Z11	X12	Y12	Z12	X13	Y13	Z13	X14	Y14	Z14	X15	Y15	Z15	X16	Y16	Z16	X17	Y17	Z17	X18	Y18	Z18	X19	Y19	Z19	X20	Y20	Z20	X21	Y21	Z21	X22	Y22	Z22	X23	Y23	Z23	X24	Y24	Z24	X25	Y25	Z25	X26	Y26	Z26	X27	Y27	Z27	X28	Y28	Z28	X29	Y29	Z29	X30	Y30	Z30	X31	Y31	Z31	X32	Y32	Z32	X33	Y33	Z33	X34	Y34	Z34	X35	Y35	Z35	X36	Y36	Z36	X37	Y37	Z37	X38	Y38	Z38	X39	Y39	Z39	

238	1.185	1497.086303710938	1418.398071289062	-512.318603515625	1588.920043945312	1410.336791992188	-235.2243804931641	1556.540283203125	958.0314331054688	-488.1716613769531	1582.766845703125	966.0554809570312	-215.294921875	1600.27880859375	909.1670532226562	-460.8113403320312	1753.570190429688	62.89968490600586	-379.9839782714844	1607.461181640625	921.510498046875	-231.0372772216797	1488.00537109375	833.4097290039062	-513.3792724609375	1448.910766601562	853.5872192382812	-176.8247528076172	1430.26123046875	953.5401000976562	-357.7345275878906	1637.046752929688	630.5677490234375	-519.4002685546875	1694.270141601562	261.80029296875	-460.6169128417969	1574.106811523438	600.0757446289062	-482.3693542480469	1692.580932617188	551.0409545898438	-492.2472839355469	938.2163696289062	296.3553161621094	-203.2571563720703	1670.050170898438	357.0711669921875	-476.6039428710938	1624.158447265625	517.9868774414062	-467.0415954589844	1506.279541015625	617.7085571289062	-169.363037109375	1991.008178710938	138.8148193359375	-451.1275634765625	1432.845825195312	644.4002075195312	-163.56591796875	1477.279541015625	521.32568359375	-184.5545349121094	1397.662475585938	549.79931640625	-177.5352630615234	1688.617919921875	463.9207153320312	-483.3595581054688	1391.916625976562	477.9212341308594	-173.5645446777344	1748.79931640625	376.904296875	-485.5610046386719	1772.96484375	278.2489624023438	-473.3403015136719	1284.38525390625	420.6790161132812	-180.1544952392578	1926.966552734375	83.91987609863281	-495.7095336914062	1261.883422851562	502.5147094726562	-191.8054046630859	1775.298095703125	39.51790618896484	-359.4650573730469	1185.91552734375	397.7116394042969	-204.5464630126953	1172.553100585938	475.05078125	-214.8500671386719	1790.168334960938	96.72784423828124	-450.0877380371094	1016.6611328125	409.1332397460938	-247.9474487304688	953.042724609375	204.6409454345703	-238.0601196289062	1008.655334472656	446.9202270507812	-319.821044921875	980.8707275390624	426.5362243652344	-348.5048217773438	975.90625	456.2068481445312	-300.1748962402344	1759.962158203125	32.23937225341797	-413.4454040527344
239	1.19	1519.261840820312	1412.440673828125	-513.924072265625	1609.319091796875	1405.647705078125	-236.2563781738281	1576.938110351562	953.2389526367188	-488.3258056640625	1604.293212890625	961.330078125	-215.5858764648438	1620.888671875	904.94921875	-461.3984069824219	1762.0224609375	63.03262329101562	-378.3051147460938	1629.353149414062	916.283447265625	-232.0703430175781	1507.15087890625	828.6306762695312	-512.816162109375	1471.521484375	847.7192993164062	-176.9197082519531	1451.093139648438	949.0641479492188	-356.9599304199219	1659.959106445312	627.9588623046875	-518.4952392578125	1711.2578125	258.7672119140625	-459.6509399414062	1596.315063476562	596.9158325195312	-483.2112121582031	1715.23681640625	548.4901733398438	-491.8126831054688	964.885498046875	298.4779357910156	-204.6768951416016	1689.57373046875	354.4367980957031	-476.5122985839844	1646.758056640625	514.7487182617188	-467.4457092285156	1531.867309570312	612.3001098632812	-169.1960144042969	2002.778076171875	120.3356399536133	-449.1969299316406	1457.874877929688	638.0678100585938	-163.0446014404297	1504.362182617188	515.5014038085938	-183.7471466064453	1424.068725585938	542.8848266601562	-176.9554595947266	1710.322998046875	460.6692199707031	-483.9037780761719	1419.607543945312	471.24462890625	-172.5911407470703	1768.781616210938	372.726318359375	-485.2564697265625	1790.240478515625	273.1421508789062	-471.880126953125	1311.523681640625	415.5555725097656	-179.9896697998047	1935.4697265625	70.00777435302734	-494.1772766113281	1290.043334960938	498.0334777832031	-191.2821044921875	1780.61181640625	37.21897125244141	-358.7793884277344	1212.756103515625	394.6183166503906	-205.0797119140625	1200.70263671875	472.3145446777344	-215.1096801757812	1800.642578125	92.11908721923828	-448.0220031738281	1043.935302734375	409.6858825683594	-249.7373504638672	978.4152221679688	206.2777404785156	-239.1116333007812	1036.360107421875	447.7456970214844	-321.3274841308594	1008.810668945312	427.9011535644531	-350.6118774414062	1003.856689453125	457.5816040039062	-301.8065490722656	1764.65478515625	32.97775268554688	-413.0123596191406
240	1.195	1541.761962890625	1406.258056640625	-515.5625	1629.855346679688	1400.785888671875	-236.6171112060547	1596.773315429688	948.87255859375	-489.0538635253906	1626.045166015625	956.5384521484376	-215.7742462158203	1641.71923828125	900.6453857421875	-461.9196166992188	1767.951904296875	62.52009201049805	-377.6370544433594	1650.862548828125	912.2777709960938	-232.3893890380859	1526.214721679688	824.1351928710938	-511.7822570800781	1494.047729492188	841.9091796875	-176.7071685791016	1471.856811523438	943.9631958007812	-356.4073791503906	1682.289306640625	625.4308471679688	-516.5171508789062	1727.706298828125	256.2995910644531	-458.7828063964844	1618.702514648438	593.0046997070312	-483.3106384277344	1738.23193359375	546.3222045898438	-491.2913208007812	991.9884643554688	299.2488098144531	-206.269287109375	1709.222412109375	352.9407653808594	-476.4896240234375	1670.194702148438	511.7827758789062	-468.0798645019531	1557.377197265625	607.0740966796875	-168.9035186767578	2013.553955078125	101.0269317626953	-447.3768615722656	1482.7578125	631.0243530273438	-162.7243194580078	1531.520751953125	509.4490661621094	-183.428466796875	1451.000610351562	535.3165893554688	-176.2095642089844	1732.445556640625	458.1346435546875	-483.8369750976562	1447.34130859375	464.7106323242188	-171.7262115478516	1788.874633789062	368.7630615234375	-484.8924865722656	1807.17724609375	268.0800476074219	-470.2146301269531	1339.276245117188	410.5892639160156	-180.1603698730469	1943.14794921875	56.13625335693359	-492.5046691894531	1319.56396484375	493.2206420898438	-190.3207397460938	1784.067749023438	35.78824615478516	-358.6258239746094	1240.050537109375	391.3049926757812	-205.7799224853516	1229.6279296875	469.4177551269531	-214.8780517578125	1809.031860351562	88.438720703125	-447.0298461914062	1072.039794921875	409.9743957519531	-251.2391967773438	1005.071594238281	207.1646728515625	-240.6540069580078	1064.68310546875	448.5085144042969	-322.7469482421875	1037.03759765625	428.7035827636719	-351.8450622558594	1032.171875	458.3327026367188	-303.1004943847656	1768.314331054688	32.9757080078125	-412.594970703125
241	1.2	1564.08154296875	1399.989013671875	-517.1139526367188	1650.273071289062	1395.996459960938	-236.9925537109375	1616.59423828125	943.9982299804688	-489.3954467773438	1647.5380859375	951.222412109375	-216.2281646728516	1661.803466796875	896.4146728515625	-463.1058349609375	1772.604736328125	62.72316360473633	-377.9702453613281	1672.053833007812	907.0482788085938	-232.9068908691406	1545.300048828125	818.6817626953125	-511.0995483398438	1516.495727539062	835.6264038085938	-176.5091400146484	1492.30712890625	939.3541870117188	-355.837158203125	1704.721435546875	623.3145141601562	-514.7771606445312	1743.270141601562	255.11767578125	-458.2572937011719	1641.225952148438	589.4500732421875	-484.6737365722656	1761.294799804688	544.4658813476562	-490.3235168457031	1019.966674804688	299.8824768066406	-207.5121612548828	1729.46826171875	352.5788879394531	-476.8551635742188	1693.833374023438	508.8628540039062	-468.9720764160156	1582.95361328125	601.342529296875	-169.0709228515625	2022.009887695312	84.89741516113281	-444.5529174804688	1508.359619140625	624.1456298828125	-162.3102264404297	1558.927734375	503.1923828125	-183.2952423095703	1477.666259765625	527.667236328125	-175.1993103027344	1755.563720703125	455.9441833496094	-484.2151489257812	1475.852416992188	457.2567138671875	-170.6171264648438	1810.408325195312	363.9050598144531	-484.0596618652344	1823.593017578125	263.6886596679688	-468.9552307128906	1367.571899414062	405.3285827636719	-179.9336547851562	1948.897705078125	46.49185943603516	-491.9248962402344	1349.013061523438	488.3588562011719	-189.2833862304688	1786.725708007812	35.41729736328125	-358.4686279296875	1268.163452148438	387.5642700195312	-206.7435760498047	1258.625732421875	465.9762268066406	-215.2215270996094	1815.146240234375	85.74581909179688	-446.7202453613281	1100.51220703125	409.783447265625	-252.2102355957031	1032.515258789062	207.5730590820312	-242.2834930419922	1093.10791015625	448.7913818359375	-324.1142272949219	1065.687255859375	429.5631713867188	-353.1819152832031	1061.066650390625	458.7765808105469	-303.9769592285156	1770.781860351562	33.77070617675781	-412.6786193847656
